<?xml version="1.0" standalone="no"?>
<!DOCTYPE svg PUBLIC "-//W3C//DTD SVG 20010904//EN"
 "http://www.w3.org/TR/2001/REC-SVG-20010904/DTD/svg10.dtd">
<svg version="1.0" xmlns="http://www.w3.org/2000/svg"
 width="400.000000pt" height="400.000000pt" viewBox="0 0 400.000000 400.000000"
 preserveAspectRatio="xMidYMid meet">

<g transform="translate(0.000000,400.000000) scale(0.100000,-0.100000)"
fill="#000000" stroke="none">
<path d="M0 2000 l0 -2000 2000 0 2000 0 0 2000 0 2000 -2000 0 -2000 0 0
-2000z m1833 854 c86 -19 163 -45 235 -81 l52 -26 0 -184 0 -184 -64 36 c-231
129 -557 153 -661 49 -63 -63 -53 -159 22 -208 49 -32 115 -56 280 -101 289
-78 415 -157 487 -305 30 -63 31 -69 31 -200 l0 -135 -37 -78 c-68 -143 -195
-237 -388 -288 -73 -19 -110 -23 -255 -22 -149 0 -182 3 -265 26 -123 33 -193
59 -260 99 l-55 33 -3 205 -2 204 27 -26 c49 -47 194 -127 277 -154 318 -100
605 -13 555 169 -19 68 -74 105 -229 155 -52 17 -147 47 -210 67 -204 65 -319
142 -377 252 -111 207 -32 477 179 613 64 42 194 86 289 100 86 12 283 4 372
-16z"/>
</g>
</svg>
